<?xml version="1.0" encoding="UTF-8"?>
<!DOCTYPE svg PUBLIC "-//W3C//DTD SVG 1.1//EN" "http://www.w3.org/Graphics/SVG/1.1/DTD/svg11.dtd">
<svg xmlns="http://www.w3.org/2000/svg" version="1.1" width="200px" height="200px" style="shape-rendering:geometricPrecision; text-rendering:geometricPrecision; image-rendering:optimizeQuality; fill-rule:evenodd; clip-rule:evenodd" xmlns:xlink="http://www.w3.org/1999/xlink">
<g><path style="opacity:1" fill="#fefefe" d="M -0.5,-0.5 C 66.1667,-0.5 132.833,-0.5 199.5,-0.5C 199.5,66.1667 199.5,132.833 199.5,199.5C 132.833,199.5 66.1667,199.5 -0.5,199.5C -0.5,166.167 -0.5,132.833 -0.5,99.5C 1.5,99.5 3.5,99.5 5.5,99.5C 5.33432,103.846 5.50098,108.179 6,112.5C 8.77454,113.136 10.9412,114.636 12.5,117C 15.5962,117.927 17.9296,116.927 19.5,114C 23.2113,113.175 26.878,113.341 30.5,114.5C 31.2697,116.272 32.6031,117.272 34.5,117.5C 37.5298,115.308 40.6965,113.308 44,111.5C 44.8221,109.212 45.4888,106.878 46,104.5C 50.4797,106.019 54.8131,105.685 59,103.5C 59.6667,101.5 59.6667,99.5 59,97.5C 56.4114,96.792 54.2447,95.4587 52.5,93.5C 54.3328,90.7096 55.3328,91.0429 55.5,94.5C 57.1667,94.5 58.8333,94.5 60.5,94.5C 60.7135,92.8561 60.3802,91.3561 59.5,90C 55.2908,88.8107 51.6242,89.644 48.5,92.5C 46.6725,97.1897 48.3392,99.6897 53.5,100C 54.3366,101.011 54.67,102.178 54.5,103.5C 52.6334,103.045 50.8001,102.378 49,101.5C 47.8926,101.585 46.8926,101.919 46,102.5C 46.8647,92.5306 42.3647,88.1973 32.5,89.5C 32.5,86.8333 32.5,84.1667 32.5,81.5C 23.7663,80.865 15.4329,81.5316 7.5,83.5C 6.56552,84.5676 6.23219,85.901 6.5,87.5C 4.26465,87.2053 2.26465,87.5386 0.5,88.5C 2.02507,90.0358 4.02507,91.0358 6.5,91.5C 5.67504,92.3857 4.67504,92.719 3.5,92.5C 2.59603,93.209 2.26269,94.209 2.5,95.5C 3.55198,95.3505 4.55198,95.5172 5.5,96C 3.5273,96.4955 1.5273,96.6621 -0.5,96.5C -0.5,64.1667 -0.5,31.8333 -0.5,-0.5 Z"/></g>
<g><path style="opacity:1" fill="#383230" d="M -0.5,99.5 C -0.5,98.8333 -0.5,98.1667 -0.5,97.5C 1.83333,97.5 4.16667,97.5 6.5,97.5C 6.5,96.5 6.5,95.5 6.5,94.5C 4.82124,94.7148 3.82124,94.0481 3.5,92.5C 4.67504,92.719 5.67504,92.3857 6.5,91.5C 4.02507,91.0358 2.02507,90.0358 0.5,88.5C 2.83333,88.5 5.16667,88.5 7.5,88.5C 7.5,86.8333 7.5,85.1667 7.5,83.5C 15.4329,81.5316 23.7663,80.865 32.5,81.5C 32.5,84.1667 32.5,86.8333 32.5,89.5C 42.3647,88.1973 46.8647,92.5306 46,102.5C 46.8926,101.919 47.8926,101.585 49,101.5C 50.8001,102.378 52.6334,103.045 54.5,103.5C 54.67,102.178 54.3366,101.011 53.5,100C 48.3392,99.6897 46.6725,97.1897 48.5,92.5C 51.6242,89.644 55.2908,88.8107 59.5,90C 60.3802,91.3561 60.7135,92.8561 60.5,94.5C 58.8333,94.5 57.1667,94.5 55.5,94.5C 55.3328,91.0429 54.3328,90.7096 52.5,93.5C 54.2447,95.4587 56.4114,96.792 59,97.5C 59.6667,99.5 59.6667,101.5 59,103.5C 54.8131,105.685 50.4797,106.019 46,104.5C 45.4888,106.878 44.8221,109.212 44,111.5C 40.6965,113.308 37.5298,115.308 34.5,117.5C 32.6031,117.272 31.2697,116.272 30.5,114.5C 26.878,113.341 23.2113,113.175 19.5,114C 17.9296,116.927 15.5962,117.927 12.5,117C 10.9412,114.636 8.77454,113.136 6,112.5C 5.50098,108.179 5.33432,103.846 5.5,99.5C 3.5,99.5 1.5,99.5 -0.5,99.5 Z"/></g>
<g><path style="opacity:1" fill="#813019" d="M 9.5,84.5 C 16.3134,83.5088 23.3134,83.1755 30.5,83.5C 30.7845,85.4147 30.4511,87.0813 29.5,88.5C 29.5,87.1667 29.5,85.8333 29.5,84.5C 22.8333,84.5 16.1667,84.5 9.5,84.5 Z"/></g>
<g><path style="opacity:1" fill="#de3405" d="M 9.5,84.5 C 16.1667,84.5 22.8333,84.5 29.5,84.5C 29.5,85.8333 29.5,87.1667 29.5,88.5C 28.9466,93.482 28.6133,98.482 28.5,103.5C 21.8333,103.5 15.1667,103.5 8.5,103.5C 8.5,102.167 8.5,100.833 8.5,99.5C 12.649,100.08 16.3157,99.4136 19.5,97.5C 16.3586,96.6787 13.0252,96.1787 9.5,96C 14.0195,95.8247 18.3528,95.3247 22.5,94.5C 23.0431,94.44 23.3764,94.1067 23.5,93.5C 18.5329,92.671 13.5329,92.171 8.5,92C 12.3563,90.8971 16.3563,90.0638 20.5,89.5C 16.8927,88.5108 13.226,88.1774 9.5,88.5C 9.5,87.1667 9.5,85.8333 9.5,84.5 Z"/></g>
<g><path style="opacity:1" fill="#9d9d9d" d="M 7.5,83.5 C 7.5,85.1667 7.5,86.8333 7.5,88.5C 5.16667,88.5 2.83333,88.5 0.5,88.5C 2.26465,87.5386 4.26465,87.2053 6.5,87.5C 6.23219,85.901 6.56552,84.5676 7.5,83.5 Z"/></g>
<g><path style="opacity:1" fill="#343434" d="M 63.5,89.5 C 65.1667,89.5 66.8333,89.5 68.5,89.5C 67.833,91.8194 67.6664,94.1527 68,96.5C 70.0408,95.5769 72.2075,95.2436 74.5,95.5C 74.196,98.5219 73.696,101.522 73,104.5C 71.6439,105.38 70.1439,105.714 68.5,105.5C 68.2924,103.08 68.6258,100.747 69.5,98.5C 68.675,97.6143 67.675,97.281 66.5,97.5C 66.7076,99.9201 66.3742,102.253 65.5,104.5C 63.8333,105.833 62.1667,105.833 60.5,104.5C 61.4079,99.4759 62.4079,94.4759 63.5,89.5 Z"/></g>
<g><path style="opacity:1" fill="#363636" d="M 110.5,89.5 C 112.467,89.2606 114.301,89.5939 116,90.5C 116.912,95.4636 117.412,100.464 117.5,105.5C 115.5,105.5 113.5,105.5 111.5,105.5C 111.5,104.167 111.5,102.833 111.5,101.5C 108.143,101.106 105.81,102.439 104.5,105.5C 104.167,105.167 103.833,104.833 103.5,104.5C 105.574,99.3534 107.907,94.3534 110.5,89.5 Z"/></g>
<g><path style="opacity:1" fill="#383838" d="M 131.5,89.5 C 133.167,89.5 134.833,89.5 136.5,89.5C 136.682,91.5914 136.348,93.5914 135.5,95.5C 136.651,96.731 137.817,96.731 139,95.5C 139.495,93.5273 139.662,91.5273 139.5,89.5C 141.5,89.5 143.5,89.5 145.5,89.5C 144.5,94.8333 143.5,100.167 142.5,105.5C 140.833,105.5 139.167,105.5 137.5,105.5C 137.318,103.409 137.652,101.409 138.5,99.5C 137.311,98.5713 135.978,98.238 134.5,98.5C 134.326,100.861 133.993,103.194 133.5,105.5C 131.833,105.5 130.167,105.5 128.5,105.5C 129.245,100.111 130.245,94.7778 131.5,89.5 Z"/></g>
<g><path style="opacity:1" fill="#d77a05" d="M 31.5,91.5 C 35.2568,91.0708 38.7568,91.7375 42,93.5C 43.5497,99.3463 43.3831,105.18 41.5,111C 39.7429,109.815 37.7429,108.648 35.5,107.5C 33.3367,107.745 31.67,108.745 30.5,110.5C 26.8333,111.833 23.1667,111.833 19.5,110.5C 15.9423,106.538 12.609,106.871 9.5,111.5C 7.78256,110.332 7.11589,108.665 7.5,106.5C 15.1667,106.5 22.8333,106.5 30.5,106.5C 31.254,101.537 31.5874,96.5365 31.5,91.5 Z"/></g>
<g><path style="opacity:1" fill="#3b3b3b" d="M 124.5,91.5 C 125.5,91.5 126.5,91.5 127.5,91.5C 127.421,92.9305 127.754,94.2638 128.5,95.5C 125.391,98.062 124.724,101.229 126.5,105C 124.527,105.495 122.527,105.662 120.5,105.5C 120.751,102.091 120.417,98.7577 119.5,95.5C 121.772,94.8658 123.439,93.5324 124.5,91.5 Z"/></g>
<g><path style="opacity:1" fill="#2c2c2b" d="M 33.5,93.5 C 39.3294,92.9998 41.6627,95.6665 40.5,101.5C 38.1667,101.5 35.8333,101.5 33.5,101.5C 33.5,98.8333 33.5,96.1667 33.5,93.5 Z"/></g>
<g><path style="opacity:1" fill="#a63112" d="M 22.5,94.5 C 18.3528,95.3247 14.0195,95.8247 9.5,96C 13.0252,96.1787 16.3586,96.6787 19.5,97.5C 15.8333,97.5 12.1667,97.5 8.5,97.5C 8.5,96.5 8.5,95.5 8.5,94.5C 13.1667,94.5 17.8333,94.5 22.5,94.5 Z"/></g>
<g><path style="opacity:1" fill="#363636" d="M 79.5,94.5 C 88.8708,94.0263 90.8708,97.5263 85.5,105C 82.0074,106.004 78.8408,105.504 76,103.5C 74.9804,99.5532 76.1471,96.5532 79.5,94.5 Z"/></g>
<g><path style="opacity:1" fill="#3b3b3b" d="M 98.5,94.5 C 103.66,95.6802 104.827,98.6802 102,103.5C 99.9251,105.648 97.5918,105.982 95,104.5C 94.5232,108.749 92.3566,110.082 88.5,108.5C 89.439,104.536 90.2724,100.536 91,96.5C 93.6073,95.8767 96.1073,95.21 98.5,94.5 Z"/></g>
<g><path style="opacity:1" fill="#383838" d="M 148.5,94.5 C 151.807,94.0632 154.807,94.7298 157.5,96.5C 159.284,102.575 156.951,105.575 150.5,105.5C 148.9,105.449 147.4,105.116 146,104.5C 144.861,100.579 145.695,97.2456 148.5,94.5 Z"/></g>
<g><path style="opacity:1" fill="#363636" d="M 167.5,94.5 C 169.722,94.178 171.556,94.8446 173,96.5C 174.599,94.9644 176.433,94.4644 178.5,95C 179.034,98.3976 179.034,101.898 178.5,105.5C 176.833,105.5 175.167,105.5 173.5,105.5C 173.949,102.71 173.949,100.044 173.5,97.5C 171.887,99.4605 170.887,101.794 170.5,104.5C 169.311,105.429 167.978,105.762 166.5,105.5C 167.449,102.792 167.449,100.126 166.5,97.5C 165.914,97.7093 165.414,98.0426 165,98.5C 164.503,100.81 164.337,103.143 164.5,105.5C 162.833,105.5 161.167,105.5 159.5,105.5C 159.833,102.167 160.167,98.8333 160.5,95.5C 162.467,95.2606 164.301,95.5939 166,96.5C 166.717,95.9558 167.217,95.2891 167.5,94.5 Z"/></g>
<g><path style="opacity:1" fill="#383838" d="M 184.5,94.5 C 186.857,94.3367 189.19,94.5034 191.5,95C 193.155,96.4443 193.822,98.2776 193.5,100.5C 190.833,100.5 188.167,100.5 185.5,100.5C 185.238,101.978 185.571,103.311 186.5,104.5C 188.276,102.553 190.276,102.22 192.5,103.5C 192.291,104.086 191.957,104.586 191.5,105C 180.194,106.896 177.86,103.396 184.5,94.5 Z"/></g>
<g><path style="opacity:1" fill="#a4a29f" d="M 3.5,92.5 C 3.82124,94.0481 4.82124,94.7148 6.5,94.5C 6.5,95.5 6.5,96.5 6.5,97.5C 4.16667,97.5 1.83333,97.5 -0.5,97.5C -0.5,97.1667 -0.5,96.8333 -0.5,96.5C 1.5273,96.6621 3.5273,96.4955 5.5,96C 4.55198,95.5172 3.55198,95.3505 2.5,95.5C 2.26269,94.209 2.59603,93.209 3.5,92.5 Z"/></g>
<g><path style="opacity:1" fill="#eaeaea" d="M 81.5,96.5 C 82.6935,96.9704 83.3601,97.9704 83.5,99.5C 83.6578,101.319 82.9911,102.652 81.5,103.5C 80.4249,101.189 80.4249,98.8555 81.5,96.5 Z"/></g>
<g><path style="opacity:1" fill="#c5c5c5" d="M 110.5,93.5 C 111.468,95.6074 111.802,97.9407 111.5,100.5C 110.022,100.762 108.689,100.429 107.5,99.5C 108.883,97.6802 109.883,95.6802 110.5,93.5 Z"/></g>
<g><path style="opacity:1" fill="#f0f0f0" d="M 95.5,97.5 C 97.9755,99.1209 98.1422,101.121 96,103.5C 95.5045,101.527 95.3379,99.5273 95.5,97.5 Z"/></g>
<g><path style="opacity:1" fill="#d5d5d5" d="M 151.5,96.5 C 152.586,96.62 153.253,97.2867 153.5,98.5C 153.147,100.731 152.314,102.731 151,104.5C 149.165,101.79 149.332,99.1238 151.5,96.5 Z"/></g>
<g><path style="opacity:1" fill="#e0e0e0" d="M 187.5,96.5 C 189.048,96.8212 189.715,97.8212 189.5,99.5C 186.752,99.5983 186.086,98.5983 187.5,96.5 Z"/></g>
</svg>
