<?xml version="1.0" encoding="UTF-8"?>
<!DOCTYPE svg PUBLIC "-//W3C//DTD SVG 1.1//EN" "http://www.w3.org/Graphics/SVG/1.1/DTD/svg11.dtd">
<svg xmlns="http://www.w3.org/2000/svg" version="1.1" width="200px" height="200px" style="shape-rendering:geometricPrecision; text-rendering:geometricPrecision; image-rendering:optimizeQuality; fill-rule:evenodd; clip-rule:evenodd" xmlns:xlink="http://www.w3.org/1999/xlink">
<g><path style="opacity:1" fill="#3a312c" d="M -0.5,99.5 C -0.5,98.8333 -0.5,98.1667 -0.5,97.5C 1.7925,97.7564 3.95917,97.4231 6,96.5C 6.16667,96.1667 6.33333,95.8333 6.5,95.5C 2.5,94.1667 2.5,92.8333 6.5,91.5C 4.5,90.8333 2.5,90.1667 0.5,89.5C 2.68597,88.7792 4.85264,88.1125 7,87.5C 7.49546,85.5273 7.66212,83.5273 7.5,81.5C 15.8333,81.5 24.1667,81.5 32.5,81.5C 32.5,84.1667 32.5,86.8333 32.5,89.5C 41.2022,87.83 45.5355,91.33 45.5,100C 45.2719,103.869 44.7719,107.702 44,111.5C 40.7204,113.271 37.5538,115.271 34.5,117.5C 27.8591,112.223 21.1924,112.223 14.5,117.5C 13.5,117 12.5,116.5 11.5,116C 10.0881,114.209 8.25475,113.042 6,112.5C 5.20385,108.245 5.37052,104.079 6.5,100C 4.19018,99.5034 1.85684,99.3367 -0.5,99.5 Z M 32.5,91.5 C 37.2797,90.6409 40.7797,92.3075 43,96.5C 42.9953,101.046 42.4953,105.546 41.5,110C 39.407,109.309 37.2404,108.476 35,107.5C 32.6721,107.817 30.8387,108.984 29.5,111C 26.5,111.667 23.5,111.667 20.5,111C 19.1613,108.984 17.3279,107.817 15,107.5C 12.5903,108.748 10.0903,109.748 7.5,110.5C 7.5,109.167 7.5,107.833 7.5,106.5C 15.1739,106.666 22.8406,106.5 30.5,106C 31.1921,101.169 31.8587,96.3356 32.5,91.5 Z"/></g>
<g><path style="opacity:1" fill="#813019" d="M 9.5,84.5 C 16.3134,83.5088 23.3134,83.1755 30.5,83.5C 30.7845,85.4147 30.4511,87.0813 29.5,88.5C 29.5,87.1667 29.5,85.8333 29.5,84.5C 22.8333,84.5 16.1667,84.5 9.5,84.5 Z"/></g>
<g><path style="opacity:1" fill="#d93407" d="M 9.5,84.5 C 16.1667,84.5 22.8333,84.5 29.5,84.5C 29.5,85.8333 29.5,87.1667 29.5,88.5C 28.9466,93.482 28.6133,98.482 28.5,103.5C 21.8333,103.5 15.1667,103.5 8.5,103.5C 8.5,102.167 8.5,100.833 8.5,99.5C 23.1667,98.8333 23.1667,98.1667 8.5,97.5C 8.5,96.5 8.5,95.5 8.5,94.5C 28.489,93.9974 28.489,93.1641 8.5,92C 12.3563,90.8971 16.3563,90.0638 20.5,89.5C 16.8927,88.5108 13.226,88.1774 9.5,88.5C 9.5,87.1667 9.5,85.8333 9.5,84.5 Z"/></g>
<g><path style="opacity:1" fill="#303030" d="M 63.5,89.5 C 65.1667,89.5 66.8333,89.5 68.5,89.5C 67.833,91.8194 67.6664,94.1527 68,96.5C 70.6811,94.0675 72.8477,94.5675 74.5,98C 73.9097,100.196 73.2431,102.362 72.5,104.5C 70.9255,105.631 69.2588,105.798 67.5,105C 68.5541,102.618 69.2208,100.118 69.5,97.5C 68.5,97.5 67.5,97.5 66.5,97.5C 66.4249,100.206 66.0916,102.873 65.5,105.5C 63.712,105.785 62.0453,105.452 60.5,104.5C 61.8847,99.5763 62.8847,94.5763 63.5,89.5 Z"/></g>
<g><path style="opacity:1" fill="#333333" d="M 53.5,89.5 C 56.3795,89.0325 58.7129,89.8659 60.5,92C 59.615,94.1566 57.9484,94.9899 55.5,94.5C 55.719,93.325 55.3857,92.325 54.5,91.5C 52.8987,92.0347 52.3987,93.0347 53,94.5C 54.6477,95.717 56.481,96.5503 58.5,97C 59.9256,99.7114 59.5923,102.211 57.5,104.5C 54.227,105.585 50.8936,105.752 47.5,105C 46.6634,103.989 46.33,102.822 46.5,101.5C 49.0488,101.441 51.0488,102.441 52.5,104.5C 54.2828,103.652 54.7828,102.319 54,100.5C 45.5694,97.0748 45.4027,93.4081 53.5,89.5 Z"/></g>
<g><path style="opacity:1" fill="#333333" d="M 110.5,89.5 C 112.467,89.2606 114.301,89.5939 116,90.5C 116.611,95.496 117.111,100.496 117.5,105.5C 113.759,106.401 111.759,105.068 111.5,101.5C 108.143,101.106 105.81,102.439 104.5,105.5C 104.167,105.167 103.833,104.833 103.5,104.5C 106.033,99.5555 108.366,94.5555 110.5,89.5 Z M 110.5,93.5 C 111.468,95.6074 111.802,97.9407 111.5,100.5C 110.5,100.5 109.5,100.5 108.5,100.5C 108.394,97.9214 109.061,95.588 110.5,93.5 Z"/></g>
<g><path style="opacity:1" fill="#343434" d="M 131.5,89.5 C 133.167,89.5 134.833,89.5 136.5,89.5C 136.326,91.861 135.993,94.1944 135.5,96.5C 136.822,96.67 137.989,96.3366 139,95.5C 138.516,90.1377 140.683,88.4711 145.5,90.5C 144.023,95.4081 143.023,100.408 142.5,105.5C 140.473,105.662 138.473,105.495 136.5,105C 137.24,103.215 137.907,101.382 138.5,99.5C 137.311,98.5713 135.978,98.238 134.5,98.5C 135.495,103.542 133.495,105.875 128.5,105.5C 129.756,100.218 130.756,94.8846 131.5,89.5 Z"/></g>
<g><path style="opacity:1" fill="#323232" d="M 124.5,91.5 C 125.926,92.8015 127.259,94.3015 128.5,96C 127.584,96.3742 126.75,96.8742 126,97.5C 125.749,99.433 125.249,101.266 124.5,103C 125.167,103.667 125.833,104.333 126.5,105C 124.527,105.495 122.527,105.662 120.5,105.5C 120.274,102.751 120.607,100.084 121.5,97.5C 120.975,96.8076 120.308,96.3076 119.5,96C 121.618,94.9509 123.284,93.4509 124.5,91.5 Z"/></g>
<g><path style="opacity:1" fill="#37302a" d="M 33.5,93.5 C 39.6556,92.3206 41.9889,94.6539 40.5,100.5C 37.8333,101.833 35.1667,101.833 32.5,100.5C 33.3742,98.2534 33.7076,95.9201 33.5,93.5 Z"/></g>
<g><path style="opacity:1" fill="#323232" d="M 81.5,94.5 C 89.1426,95.4644 90.4759,98.9644 85.5,105C 82.0074,106.004 78.8408,105.504 76,103.5C 75.1524,98.85 76.9857,95.85 81.5,94.5 Z M 81.5,96.5 C 84.139,99.1072 83.9723,101.774 81,104.5C 80.3985,101.779 80.5651,99.1128 81.5,96.5 Z"/></g>
<g><path style="opacity:1" fill="#313131" d="M 99.5,94.5 C 103.873,96.3072 104.706,99.3072 102,103.5C 99.9251,105.648 97.5918,105.982 95,104.5C 93.9914,106.025 93.4914,107.692 93.5,109.5C 91.712,109.785 90.0453,109.452 88.5,108.5C 89.5228,104.887 90.3562,101.221 91,97.5C 92.3117,95.3424 93.9783,95.0091 96,96.5C 97.3024,95.9152 98.469,95.2485 99.5,94.5 Z M 95.5,97.5 C 96.5,97.5 97.5,97.5 98.5,97.5C 98.4959,99.8421 97.6625,101.842 96,103.5C 95.5,103 95,102.5 94.5,102C 95.3802,100.644 95.7135,99.1439 95.5,97.5 Z"/></g>
<g><path style="opacity:1" fill="#333333" d="M 150.5,94.5 C 157.519,94.7232 159.519,97.8899 156.5,104C 153.241,105.728 149.908,105.894 146.5,104.5C 144.319,99.5391 145.653,96.2058 150.5,94.5 Z M 151.5,96.5 C 152.586,96.62 153.253,97.2867 153.5,98.5C 153.147,100.731 152.314,102.731 151,104.5C 149.462,101.857 149.629,99.19 151.5,96.5 Z"/></g>
<g><path style="opacity:1" fill="#313131" d="M 166.5,96.5 C 165.106,98.9514 164.272,101.618 164,104.5C 162.644,105.38 161.144,105.714 159.5,105.5C 159.833,102.167 160.167,98.8333 160.5,95.5C 162.621,95.3253 164.621,95.6586 166.5,96.5 Z"/></g>
<g><path style="opacity:1" fill="#333333" d="M 173.5,96.5 C 172.199,99.023 171.199,101.69 170.5,104.5C 169.311,105.429 167.978,105.762 166.5,105.5C 167.551,102.344 167.551,99.3442 166.5,96.5C 168.684,94.0431 171.018,94.0431 173.5,96.5 Z"/></g>
<g><path style="opacity:1" fill="#333333" d="M 173.5,96.5 C 174.866,94.6495 176.533,94.3162 178.5,95.5C 179.192,98.7697 179.192,102.103 178.5,105.5C 176.833,105.5 175.167,105.5 173.5,105.5C 174.551,102.344 174.551,99.3442 173.5,96.5 Z"/></g>
<g><path style="opacity:1" fill="#343434" d="M 186.5,94.5 C 191.186,93.984 193.519,95.984 193.5,100.5C 190.833,100.5 188.167,100.5 185.5,100.5C 185.238,101.978 185.571,103.311 186.5,104.5C 188.276,102.553 190.276,102.22 192.5,103.5C 192.291,104.086 191.957,104.586 191.5,105C 188.24,105.784 185.073,105.617 182,104.5C 179.953,99.5922 181.453,96.2588 186.5,94.5 Z M 187.5,96.5 C 189.048,96.8212 189.715,97.8212 189.5,99.5C 186.752,99.5983 186.086,98.5983 187.5,96.5 Z"/></g>
</svg>
